<?xml version="1.0" standalone="no"?><!DOCTYPE svg PUBLIC "-//W3C//DTD SVG 1.1//EN" "http://www.w3.org/Graphics/SVG/1.1/DTD/svg11.dtd"><svg t="1617968968912" class="icon" viewBox="0 0 1120 1024" version="1.1" xmlns="http://www.w3.org/2000/svg" p-id="3564" xmlns:xlink="http://www.w3.org/1999/xlink" width="328.125" height="300"><defs><style type="text/css"></style></defs><path d="M902.722 185.49h-92.453a1111.771 1111.771 0 0 0 3.804-136.045V34.816A35.109 35.109 0 0 0 779.257 0H157.542a35.401 35.401 0 0 0-33.938 34.816v53.248c0 32.475 1.755 65.243 4.681 97.426H29.69a33.646 33.646 0 0 0-22.821 13.751 38.034 38.034 0 0 0-6.437 27.21l2.048 17.261c13.166 110.885 72.85 187.246 158.867 204.8l23.405 4.681h2.048a656.53 656.53 0 0 0 29.258 66.999 445.879 445.879 0 0 0 107.373 141.02 234.057 234.057 0 0 0 110.3 54.125v148.334H332.5a35.401 35.401 0 0 0-34.23 36.279 37.45 37.45 0 0 0 10.24 25.746 32.475 32.475 0 0 0 23.99 10.533h272.384a33.646 33.646 0 0 0 23.99-10.533 37.157 37.157 0 0 0 9.948-25.746 35.401 35.401 0 0 0-33.938-36.28H502.777V715.338a235.52 235.52 0 0 0 110.006-53.833 448.805 448.805 0 0 0 107.667-141.02 721.774 721.774 0 0 0 29.257-67.29h2.34l23.406-4.682c86.309-17.262 146.286-93.623 158.866-204.8l1.756-17.554a31.89 31.89 0 0 0 0-5.267 38.327 38.327 0 0 0-10.24-25.453 31.305 31.305 0 0 0-23.698-9.948M74.159 258.048h61.148a956.416 956.416 0 0 0 24.576 114.98 144.53 144.53 0 0 1-85.724-114.98m551.205 13.166l-58.514 60.562a20.48 20.48 0 0 0-5.56 18.14l13.46 85.43a20.773 20.773 0 0 1-7.315 20.188 18.14 18.14 0 0 1-20.188 1.755l-69.924-40.375a17.262 17.262 0 0 0-17.554 0l-71.095 40.375a18.14 18.14 0 0 1-20.188-1.755 20.187 20.187 0 0 1-7.314-19.895l13.458-84.553a20.48 20.48 0 0 0-5.559-18.14l-58.514-60.562a21.358 21.358 0 0 1-4.974-21.065 19.602 19.602 0 0 1 16.677-15.214l79.287-12.58a19.31 19.31 0 0 0 14.336-11.118l35.4-77.824a19.31 19.31 0 0 1 17.263-11.703 19.017 19.017 0 0 1 16.969 11.703l35.694 77.824a19.31 19.31 0 0 0 14.336 11.118l79.286 12.58a19.602 19.602 0 0 1 15.507 14.044 22.235 22.235 0 0 1-4.974 21.065m151.845 101.522c4.68-16.384 9.07-33.06 12.873-49.737 4.388-21.358 8.484-43.008 11.995-64.658h60.855a143.945 143.945 0 0 1-85.723 114.395" p-id="3565"></path></svg>