<?xml version="1.0" standalone="no"?><!DOCTYPE svg PUBLIC "-//W3C//DTD SVG 1.1//EN" "http://www.w3.org/Graphics/SVG/1.1/DTD/svg11.dtd"><svg t="1617969836199" class="icon" viewBox="0 0 1024 1024" version="1.1" xmlns="http://www.w3.org/2000/svg" p-id="9598" xmlns:xlink="http://www.w3.org/1999/xlink" width="300" height="300"><defs><style type="text/css"></style></defs><path d="M512 930.24c-229.44 0-420.96-47.904-468.448-111.904-7.36 9.92-11.552 20.256-11.552 30.88C32 928.064 246.912 992 512 992c265.088 0 480-63.936 480-142.784 0-10.624-4.16-20.928-11.552-30.88-47.488 64-239.04 111.904-468.448 111.904z m0-546.08c265.088 0 480-78.848 480-176.096S777.088 32 512 32C246.912 32 32 110.816 32 208.064c0 97.28 214.912 176.096 480 176.096zM300.064 522.72v-61.696c-128.64-18.88-224.768-54.4-256.512-97.12C36.192 373.824 32 384.16 32 394.752c0 56.224 109.408 104.704 268.064 128z m423.872-61.696v61.728C882.592 499.456 992 450.976 992 394.752c0-10.592-4.16-20.928-11.552-30.848-31.712 42.72-127.904 78.208-256.512 97.12z m0 152.96v61.696C882.592 652.384 992 603.904 992 547.68c0-10.592-4.16-20.896-11.552-30.848-31.712 42.752-127.904 78.208-256.512 97.12z m-423.872 61.664V613.92c-128.64-18.88-224.768-54.4-256.512-97.12C36.192 526.72 32 537.056 32 547.648c0 56.224 109.408 104.704 268.064 128z m0 151.968v-61.728c-128.64-18.88-224.768-54.4-256.512-97.12C36.192 678.688 32 689.024 32 699.616c0 56.224 109.408 104.704 268.064 128z m423.872-61.728v61.728C882.592 804.32 992 755.84 992 699.616c0-10.592-4.16-20.928-11.552-30.848-31.712 42.72-127.904 78.208-256.512 97.12zM487.264 873.792c6.176 3.584 12.8 5.376 19.904 5.376 7.136 0 13.92-1.792 20-5.376a17.92 17.92 0 0 0 9.216-16.64l0.736-22.112c41.792-2.624 74.56-12.896 98.24-30.816 23.616-17.92 35.424-41.6 35.424-71.008 0-16.224-3.648-30.08-11.04-41.6a100.704 100.704 0 0 0-29.248-29.408 185.728 185.728 0 0 0-40.896-20.352 868.485 868.485 0 0 0-45.856-14.944l3.68-98.432c6.88 1.856 12.8 4.128 17.728 6.784l12.576 6.72c5.376 3.456 11.168 6.432 17.344 9.12 6.208 2.656 13.216 3.936 21.088 3.936 13.344 0 22.72-2.72 28.384-8.224a27.968 27.968 0 0 0 8.48-21.152c0-4.16-2.176-9.12-6.592-15.04a83.424 83.424 0 0 0-19.616-17.504 164.032 164.032 0 0 0-32.512-16.416 217.12 217.12 0 0 0-45.408-11.616l1.472-28.256a18.08 18.08 0 0 0-9.28-16.416c-6.08-3.744-12.768-5.664-19.872-5.664-7.136 0-13.888 1.92-19.904 5.664a18.016 18.016 0 0 0-9.216 16.416l-0.8 25.44c-43.872 1.856-77.856 12.384-101.856 31.424-24.192 19.04-36.224 43.648-36.224 73.792 0 15.84 3.744 29.408 11.424 40.736 7.68 11.296 17.664 20.992 30.304 29.12 12.544 8.128 26.56 14.976 42.08 20.64 15.424 5.664 31.2 10.944 46.88 15.84l-3.712 100.128c-18.688-4.512-33.216-10.72-43.52-18.688a151.712 151.712 0 0 0-17.76-10.432c-6.4-3.2-13.856-4.96-22.208-5.408-25.6 0-38.368 8.864-38.368 26.624 0 9.024 3.776 17.248 11.456 24.544 7.616 7.424 17.376 13.792 29.216 19.264 11.808 5.472 24.8 10.112 39.04 13.888 14.304 3.744 27.936 6.56 40.64 8.448l-0.64 24.928c0 7.552 3.072 13.056 9.216 16.672z m54.304-180.16c12.736 5.28 23.04 11.424 30.976 18.4 7.904 6.976 11.84 15.36 11.84 25.152 0 12.096-4.128 21.28-12.224 27.712-8.16 6.432-19.296 10.592-33.536 12.48l2.944-83.744zM452.896 590.4a31.456 31.456 0 0 1-12.64-25.76c0-12.032 4.48-21.664 13.344-28.832 8.864-7.168 20.8-11.52 35.52-12.992l-2.88 85.376c-13.92-5.248-24.96-11.168-33.344-17.792z" p-id="9599" fill="#8396A5"></path></svg>