<?xml version="1.0" standalone="no"?><!DOCTYPE svg PUBLIC "-//W3C//DTD SVG 1.1//EN" "http://www.w3.org/Graphics/SVG/1.1/DTD/svg11.dtd"><svg t="1620992343583" class="icon" viewBox="0 0 1024 1024" version="1.1" xmlns="http://www.w3.org/2000/svg" p-id="2630" xmlns:xlink="http://www.w3.org/1999/xlink" width="300" height="300"><defs><style type="text/css"></style></defs><path d="M856.746667 948.148148H166.494815a75.851852 75.851852 0 0 1-75.851852-75.851852V417.185185h841.955556v455.111111a75.851852 75.851852 0 0 1-75.851852 75.851852z m-179.768889-219.591111a18.962963 18.962963 0 0 0-18.962963 18.962963v72.059259a18.962963 18.962963 0 0 0 18.962963 18.962963h72.059259a18.962963 18.962963 0 0 0 18.962963-18.962963v-72.059259a18.962963 18.962963 0 0 0-18.962963-18.962963z m-201.386667 0a18.962963 18.962963 0 0 0-18.962963 18.962963v72.059259a18.962963 18.962963 0 0 0 18.962963 18.962963h72.059259a18.962963 18.962963 0 0 0 18.962963-18.962963v-72.059259a18.962963 18.962963 0 0 0-18.962963-18.962963z m-201.386667 0a18.962963 18.962963 0 0 0-18.962963 18.962963v72.059259a18.962963 18.962963 0 0 0 18.962963 18.962963h72.05926a18.962963 18.962963 0 0 0 18.962963-18.962963v-72.059259a18.962963 18.962963 0 0 0-18.962963-18.962963z m402.773334-201.386667a18.962963 18.962963 0 0 0-18.962963 18.962963v72.05926a18.962963 18.962963 0 0 0 18.962963 18.962963h72.059259a18.962963 18.962963 0 0 0 18.962963-18.962963v-72.05926a18.962963 18.962963 0 0 0-18.962963-18.962963z m-201.386667 0a18.962963 18.962963 0 0 0-18.962963 18.962963v72.05926a18.962963 18.962963 0 0 0 18.962963 18.962963h72.059259a18.962963 18.962963 0 0 0 18.962963-18.962963v-72.05926a18.962963 18.962963 0 0 0-18.962963-18.962963z m-201.386667 0a18.962963 18.962963 0 0 0-18.962963 18.962963v72.05926a18.962963 18.962963 0 0 0 18.962963 18.962963h72.05926a18.962963 18.962963 0 0 0 18.962963-18.962963v-72.05926a18.962963 18.962963 0 0 0-18.962963-18.962963zM932.598519 341.333333H90.642963V235.140741a75.851852 75.851852 0 0 1 75.851852-75.851852h106.951111v45.89037a45.89037 45.89037 0 0 0 91.780741 0V159.288889h292.788148v45.89037a45.89037 45.89037 0 0 0 91.401481 0V159.288889h107.330371a75.851852 75.851852 0 0 1 75.851852 75.851852V341.333333z" p-id="2631" fill="#999aaa"></path><path d="M319.336296 91.401481a34.891852 34.891852 0 0 1 34.891852 34.891852v75.851852a34.891852 34.891852 0 0 1-34.891852 34.512593 34.891852 34.891852 0 0 1-34.891852-34.512593v-75.851852a34.891852 34.891852 0 0 1 34.891852-34.891852z" p-id="2632" fill="#999aaa"></path><path d="M703.905185 91.401481a34.891852 34.891852 0 0 1 34.512593 34.891852v75.851852a34.512593 34.512593 0 0 1-34.512593 34.512593 34.891852 34.891852 0 0 1-34.891852-34.512593v-75.851852a34.891852 34.891852 0 0 1 34.891852-34.891852z" p-id="2633" fill="#999aaa"></path></svg>