<?xml version="1.0" standalone="no"?><!DOCTYPE svg PUBLIC "-//W3C//DTD SVG 1.1//EN" "http://www.w3.org/Graphics/SVG/1.1/DTD/svg11.dtd"><svg t="1620108332927" class="icon" viewBox="0 0 1024 1024" version="1.1" xmlns="http://www.w3.org/2000/svg" p-id="3498" xmlns:xlink="http://www.w3.org/1999/xlink" width="300" height="300"><defs><style type="text/css"></style></defs><path d="M512 17.578667C238.933333 17.578667 17.578667 211.228444 17.578667 450.161778c0 136.533333 72.476444 258.161778 185.400889 337.464889v218.794666l216.632888-131.413333c30.549333 5.12 61.44 7.736889 92.444445 7.793778 273.066667 0 494.421333-193.706667 494.421333-432.64C1006.478222 211.228444 785.066667 17.578667 512 17.578667zM264.760889 512a61.781333 61.781333 0 1 1 0-123.619556 61.781333 61.781333 0 0 1 0 123.619556zM512 512a61.781333 61.781333 0 1 1 0-123.619556A61.781333 61.781333 0 0 1 512 512z m247.239111 0a61.781333 61.781333 0 1 1 0-123.619556 61.781333 61.781333 0 0 1 0 123.619556z" fill="#CCCCD8" p-id="3499"></path></svg>