<?xml version="1.0" standalone="no"?><!DOCTYPE svg PUBLIC "-//W3C//DTD SVG 1.1//EN" "http://www.w3.org/Graphics/SVG/1.1/DTD/svg11.dtd"><svg t="1617969905013" class="icon" viewBox="0 0 1036 1024" version="1.1" xmlns="http://www.w3.org/2000/svg" p-id="11274" xmlns:xlink="http://www.w3.org/1999/xlink" width="303.515625" height="300"><defs><style type="text/css"></style></defs><path d="M384.406186 60.25949m35.991163 0l202.743362 0q35.991163 0 35.991163 35.991163l0 0q0 35.991163-35.991163 35.991163l-202.743362 0q-35.991163 0-35.991163-35.991163l0 0q0-35.991163 35.991163-35.991163Z" p-id="11275" fill="#8396A5"></path><path d="M925.281382 60.25949h-42.603254a35.991163 35.991163 0 0 0-35.991163 35.991163 35.991163 35.991163 0 0 0 35.991163 35.991163h42.603254a38.870456 38.870456 0 0 1 38.870456 38.870456V913.147218a38.870456 38.870456 0 0 1-38.870456 38.870456h-814.4286A38.870456 38.870456 0 0 1 71.982326 913.147218V171.112272a38.870456 38.870456 0 0 1 38.870456-38.870456h50.00715a35.991163 35.991163 0 0 0 35.991163-35.991163 35.991163 35.991163 0 0 0-35.991163-35.991163H110.852782A110.852782 110.852782 0 0 0 0 171.112272V913.147218a110.852782 110.852782 0 0 0 110.852782 110.852782h814.4286A110.852782 110.852782 0 0 0 1036.134163 913.147218V171.112272A110.852782 110.852782 0 0 0 925.281382 60.25949z" p-id="11276" fill="#8396A5"></path><path d="M254.632336 0m35.991163 0l0 0q35.991163 0 35.991163 35.991163l0 115.583049q0 35.991163-35.991163 35.991163l0 0q-35.991163 0-35.991163-35.991163l0-115.583049q0-35.991163 35.991163-35.991163Z" p-id="11277" fill="#8396A5"></path><path d="M716.923398 9.871862m35.991163 0l0 0q35.991163 0 35.991163 35.991163l0 115.583049q0 35.991163-35.991163 35.991162l0 0q-35.991163 0-35.991163-35.991162l0-115.583049q0-35.991163 35.991163-35.991163Z" p-id="11278" fill="#8396A5"></path><path d="M718.393894 297.266439H311.961117l0.215947 11.527455c1.542478 80.589355 2.324001 167.842217 2.324 259.321471 0 91.674633-0.781522 173.600803-2.324 243.485358l-0.246797 11.558305h73.987548v-67.704519h256.174814v56.42386h76.301265l-0.246796-11.558305c-1.542478-72.702149-2.324001-155.389275-2.324001-245.768226s0.781522-173.014662 2.324001-245.768227z m-76.301265 397.198474H385.917815V556.855272h256.174814z m0-198.599237H385.917815V360.508054h256.174814z" p-id="11279" fill="#8396A5"></path></svg>