<?xml version="1.0" standalone="no"?><!DOCTYPE svg PUBLIC "-//W3C//DTD SVG 1.1//EN" "http://www.w3.org/Graphics/SVG/1.1/DTD/svg11.dtd"><svg t="1617969089891" class="icon" viewBox="0 0 1024 1024" version="1.1" xmlns="http://www.w3.org/2000/svg" p-id="4471" xmlns:xlink="http://www.w3.org/1999/xlink" width="300" height="300"><defs><style type="text/css"></style></defs><path d="M829.44 1024H194.56a163.84 163.84 0 0 1-163.84-163.84V163.84a163.84 163.84 0 0 1 163.84-163.84h634.88a163.84 163.84 0 0 1 163.84 163.84v696.32a163.84 163.84 0 0 1-163.84 163.84zM501.76 225.28H276.48a40.96 40.96 0 0 0 0 81.92h225.28a40.96 40.96 0 0 0 0-81.92z m122.88 245.76H276.48a40.96 40.96 0 0 0 0 81.92h348.16a40.96 40.96 0 0 0 0-81.92z m122.88 245.76H276.48a40.96 40.96 0 0 0 0 81.92h471.04a40.96 40.96 0 0 0 0-81.92z" p-id="4472"></path></svg>