<?xml version="1.0" standalone="no"?><!DOCTYPE svg PUBLIC "-//W3C//DTD SVG 1.1//EN" "http://www.w3.org/Graphics/SVG/1.1/DTD/svg11.dtd"><svg t="1617969210921" class="icon" viewBox="0 0 1170 1024" version="1.1" xmlns="http://www.w3.org/2000/svg" p-id="5267" xmlns:xlink="http://www.w3.org/1999/xlink" width="342.7734375" height="300"><defs><style type="text/css"></style></defs><path d="M732.032 559.177143a271.140571 271.140571 0 0 0 123.977143-233.910857A272.384 272.384 0 0 0 599.277714 60.123429a271.506286 271.506286 0 0 0-162.011428 499.126857 22.601143 22.601143 0 0 1-3.803429 39.862857 397.312 397.312 0 0 0-239.542857 297.984 56.685714 56.685714 0 0 0 56.173714 66.121143h669.037715a56.685714 56.685714 0 0 0 56.173714-66.121143 397.165714 397.165714 0 0 0-239.616-297.910857 22.674286 22.674286 0 0 1-3.657143-40.009143z" p-id="5268"></path><path d="M1168.694857 766.537143a262.875429 262.875429 0 0 0-158.72-197.046857 14.921143 14.921143 0 0 1-2.413714-26.404572A179.565714 179.565714 0 0 0 897.481143 212.845714a333.531429 333.531429 0 0 1-78.994286 357.156572 459.922286 459.922286 0 0 1 198.729143 240.274285h114.249143a37.595429 37.595429 0 0 0 37.302857-43.739428zM350.592 570.368A335.506286 335.506286 0 0 1 271.524571 212.845714l-2.633142-0.219428a179.565714 179.565714 0 0 0-107.081143 330.386285 14.921143 14.921143 0 0 1-2.56 26.331429 262.875429 262.875429 0 0 0-158.72 197.193143 37.595429 37.595429 0 0 0 37.302857 43.812571h114.176a459.922286 459.922286 0 0 1 198.509714-240.128z" p-id="5269"></path></svg>