<?xml version="1.0" standalone="no"?><!DOCTYPE svg PUBLIC "-//W3C//DTD SVG 1.1//EN" "http://www.w3.org/Graphics/SVG/1.1/DTD/svg11.dtd"><svg t="1617969960992" class="icon" viewBox="0 0 1024 1024" version="1.1" xmlns="http://www.w3.org/2000/svg" p-id="12178" xmlns:xlink="http://www.w3.org/1999/xlink" width="300" height="300"><defs><style type="text/css"></style></defs><path d="M355.00038599 490.34557326h347.35386966c12.92442169 0 23.48070457 10.55628288 23.48070456 23.48070343s-10.55628288 23.48070457-23.48070456 23.48070457h-347.35386966c-12.92442169 0-23.48070457-10.55628288-23.48070457-23.48070457s10.55628288-23.48070457 23.48070457-23.48070343zM121.19679317 567.08934429h205.86757576c46.07837298 0 40.17809408 63.65879751 0 63.65879864H171.93116899c-52.33989405 0-61.57162382-33.67574528-50.73437582-63.65879864zM186.66179925 322.76960711l37.85009152 10.59642027-9.95421298 66.950111-43.71023302-11.88083598z" p-id="12179" fill="#8396A5"></path><path d="M240.16569458 347.37417443c39.65630009-12.32235293 35.92347079-155.01278549-47.36278869-129.52518428-49.04858169 15.01159538-43.02788835 73.09121763-16.21573405 106.76696292 15.81435449 19.82815005 44.75382101 28.57822435 63.57852274 22.75822136z" p-id="12180" fill="#8396A5"></path><path d="M253.77246094 251.20363179c-5.37848605 10.75697209-46.60016697 30.10346667-64.54183253 31.50829568-17.9416667 1.40482901-1.3245531-68.03383523 64.54183253-31.50829568z" p-id="12181" fill="#8396A5"></path><path d="M186.50124743 271.71412765c5.49890048-0.6020699 10.79711061 6.86359097 11.88083484 16.6973895 1.08372537 9.83379968-2.48855325 18.26277035-7.9473152 18.9049765-5.45876195 0.6020699-10.79711061-6.86359097-11.88083484-16.69738951-1.08372537-9.87393707 2.48855325-18.30290773 7.9473152-18.90497649zM223.30775211 394.25530653l-12.60331805 172.83403776c-35.4016768 0-59.60486457 16.13545813-93.12005689 27.77546524-2.80965689-88.10281301 20.06897778-180.46024931 56.59451734-247.73146283 14.69049173 18.10221853 39.93726635 48.24582258 49.1288576 47.12195983z" p-id="12182" fill="#8396A5"></path><path d="M400.35627577 442.90250866l-23.23987684 4.57572693c-2.97020871 0.6020699-13.76731933 5.7798656-13.40607715 8.83035022 0.36124217 3.01034723 9.63310933 3.13076053 12.64345657 2.44841586l16.25587143-4.2144859c9.2718683-2.40827733 8.46910919-8.42897067 7.74662599-11.64000711z" p-id="12183" fill="#8396A5"></path><path d="M405.41365817 462.28914176l0.96331093-0.04013853c3.81310635 2.64910507 1.60551822 9.2718683-3.33144974 9.79366116 4.25462329 2.1674496 2.72938098 8.58952249-1.68579413 9.95421412 3.612416 2.64910507 1.16400128 9.19159239-3.93351965 9.15145386l-23.28001536-0.08027591c-6.54248733-0.04013853-14.93131947-3.57227861-18.26276921-6.3819355-9.87393707-8.30855737-3.57227861-23.40042866 2.24772552-27.13325795 4.53558955-2.8899328 7.46565973-5.45876195 10.95766129-5.49890048l36.12416114-0.16055183c8.22828146 0 6.90372835 10.47600697 0.20068921 10.39573106z" p-id="12184" fill="#8396A5"></path><path d="M393.21171968 482.31798215s4.61586546 0.12041443 8.70993693 0.20068921c-0.16055182-0.16055182-0.36124217-0.36124217-0.56193138-0.48165547 0.40137955-0.12041443 0.76262173-0.28096626 1.08372423-0.48165546-4.13420999 0.32110365-9.23172978 0.76262173-9.23172978 0.76262172z m13.28566386-19.988703c0.32110365 0.24082773 0.6020699 0.52179399 0.84289649 0.80275911-4.61586546-0.08027591-12.44276622-0.44151808-12.44276622-0.44151695s8.06772963-0.44151808 11.47945529-0.44151808c-0.04013853 0 0 0.04013853 0.12041444 0.08027592z m-1.48510493 9.15145386c-0.6020699 0.32110365-1.24427719 0.52179399-1.96675925 0.6020699 0.28096626 0.16055182 0.52179399 0.32110365 0.76262059 0.48165547-4.53558955-0.04013853-10.15490333-0.12041443-10.15490333-0.12041443s6.98400427-0.68234581 11.35904199-0.96331094z" p-id="12185" fill="#8396A5"></path><path d="M216.96595513 382.45474759L269.62695395 449.24430563h92.31729778v45.07492466l-99.10061283 0.88303502c-17.41987271 0.16055182-26.25022293-13.12511203-30.78581248-18.46345955l-52.82154951-62.33424555c-21.27311645-25.12636018 17.17904498-57.95920782 37.72967822-31.94981262zM307.79814912 590.28908259h42.42581959c5.82000413 0 8.62966101-1.40482901 9.15145387 4.37503773l15.29256163 154.45085411c0.56193138 5.82000413-4.77641728 10.59642027-10.59642026 10.59642027H321.64574435c-5.82000413 0-10.07462741-4.81655467-10.63655878-10.59642027l-13.8475941-148.22947157c-0.52179399-5.7798656 4.81655467-10.59642027 10.63655765-10.59642027zM317.83263915 770.02684871c-2.7695195 7.70648747-4.97710649 16.45656178-5.09752093 21.15270315-0.20069035 7.98745373-0.48165547 14.28911218 3.05048463 14.69049173l12.92442168 1.4449664c2.36813995 0.28096626 3.97365817-2.60896768 4.37503773-5.98055481 6.06083186-0.6020699 18.22263182 8.50924658 33.27436459 10.19504071l36.40512625 4.09407147c7.50579826 0.84289763 20.47035733-0.76262173 20.91187541-9.51269603 0.48165547-8.75007431-21.47380679-14.85104355-36.68609251-21.35339236-5.82000413-2.48855325-12.40262883-8.30855737-18.30290773-14.97145799-1.40482901 0.64220729-2.97020871 1.00344946-4.57572694 1.00344945H321.64574435c-1.36469049-0.04013853-2.64910507-0.28096626-3.8131052-0.76262172zM83.3868379 639.77918237h170.86727851c12.92442169 0 23.48070457 10.55628288 23.48070457 23.48070456s-10.55628288 23.48070457-23.48070457 23.48070344H83.3868379c-12.92442169 0-23.48070457-10.55628288-23.48070343-23.48070344 0.04013853-12.92442169 10.59642027-23.48070457 23.48070343-23.48070456z" p-id="12186" fill="#8396A5"></path><path d="M59.94627186 663.25988693v-192.58191303c0-12.92442169 10.55628288-23.48070457 23.48070457-23.48070343s23.48070457 10.55628288 23.48070456 23.48070343v192.58191303c0 12.92442169-10.55628288 23.48070457-23.48070456 23.48070344-12.92442169-0.04013853-23.48070457-10.59642027-23.48070457-23.48070344zM160.65240291 660.69105778h16.37628701v133.13759915H160.65240291z" p-id="12187" fill="#8396A5"></path><path d="M96.19084629 821.60412217c6.18124515-11.19849017 14.89118208-20.79146098 25.32705053-28.05643036 13.44621568-9.35214421 29.74222563-14.81090617 47.32265017-14.81090618 17.58042453 0 33.87643449 5.45876195 47.32264903 14.81090618 10.43586845 7.26497053 19.14580537 16.85794133 25.32705052 28.05643036h-17.78111488c-4.45531363-6.06083186-9.91407559-11.39917938-16.13545813-15.69394006-10.95766243-7.62621155-24.32360107-12.12166258-38.73312654-12.12166257s-27.77546525 4.45531363-38.73312768 12.12166257c-6.22138368 4.29476181-11.68014563 9.63310933-16.13545814 15.69394006h-17.78111488z" p-id="12188" fill="#8396A5"></path><path d="M171.24882432 357.9705947l5.45876195-20.14925369 48.5267877 51.65754824-1.20413866 10.99780096zM941.3356453 567.08934429h-205.86757575c-46.07837298 0-40.13795555 63.65879751 0 63.65879864h155.13319879c52.33989405 0 61.57162382-33.67574528 50.73437696-63.65879864z" p-id="12189" fill="#8396A5"></path><path d="M839.26482261 394.25530653l12.60331805 172.83403776c35.4016768 0 60.04638151 10.31545515 93.52143758 21.95546225-3.29131235-82.72432697-22.07587555-170.54617486-57.03603541-241.95159836-14.69049173 18.14235591-39.93726635 48.2859611-49.08872022 47.16209835z" p-id="12190" fill="#8396A5"></path><path d="M664.18305934 442.90250866l23.23987684 4.57572693c3.01034723 0.6020699 13.76731933 5.7798656 13.40607715 8.83035022-0.36124217 3.01034723-9.63310933 3.13076053-12.64345656 2.44841586l-16.25587144-4.2144859c-9.23172978-2.40827733-8.46910919-8.42897067-7.74662599-11.64000711z" p-id="12191" fill="#8396A5"></path><path d="M659.16581547 462.28914176l-0.96331094-0.04013853c-3.81310635 2.64910507-1.60551822 9.2718683 3.33144974 9.79366116-4.25462329 2.1674496-2.72938098 8.58952249 1.64565675 9.95421412-3.612416 2.64910507-1.16400128 9.19159239 3.93351965 9.15145386l23.28001422-0.08027591c6.54248733-0.04013853 14.93131947-3.57227861 18.26277034-6.3819355 9.87393707-8.30855737 3.57227861-23.40042866-2.2477255-27.13325795-4.53558955-2.8899328-7.46565973-5.45876195-10.95766244-5.49890048l-36.12416-0.16055183c-8.22828146 0-6.90372835 10.47600697-0.16055182 10.39573106z" p-id="12192" fill="#8396A5"></path><path d="M671.32761543 482.31798215s-4.61586546 0.12041443-8.70993578 0.20068921c0.16055182-0.16055182 0.36124217-0.36124217 0.56193137-0.48165547-0.40137955-0.12041443-0.76262173-0.28096626-1.08372537-0.48165546 4.17434738 0.32110365 9.23172978 0.76262173 9.23172978 0.76262172z m-13.24552533-19.988703c-0.32110365 0.24082773-0.6020699 0.52179399-0.8428965 0.80275911 4.61586546-0.08027591 12.44276622-0.44151808 12.44276622-0.44151695s-8.06772963-0.44151808-11.47945529-0.44151808c0.04013853 0-0.04013853 0.04013853-0.12041443 0.08027592z m1.4449664 9.15145386c0.6020699 0.32110365 1.24427719 0.52179399 1.96676039 0.6020699-0.28096626 0.16055182-0.56193138 0.32110365-0.76262172 0.48165547 4.53558955-0.04013853 10.15490333-0.12041443 10.15490332-0.12041443s-6.98400427-0.68234581-11.35904199-0.96331094z" p-id="12193" fill="#8396A5"></path><path d="M845.60661959 382.45474759L792.9456219 449.24430563h-92.31729891v45.07492466l99.14075136 0.88303502c17.41987271 0.16055182 26.25022293-13.12511203 30.78581248-18.46345955l52.82154951-62.33424555c21.19284053-25.12636018-17.25932089-57.95920782-37.76981675-31.94981262zM754.73428821 590.28908259h-42.42581959c-5.82000413 0-8.30855737-2.97020871-8.83035022 2.84979542l-15.61366528 155.97609642c-0.6020699 5.82000413 4.77641728 10.59642027 10.59642027 10.59642027h42.42581959c5.82000413 0 10.07462741-4.81655467 10.63655879-10.59642027l13.8475941-148.22947157c0.52179399-5.7798656-4.81655467-10.59642027-10.63655766-10.59642027zM745.50255843 769.62546915c3.05048462 7.1044187 5.53903787 14.89118208 5.98055482 19.26621981 0.76262173 7.9473152 1.52524231 14.20883627-1.96675926 14.85104355l-12.76386986 2.36813882c-2.32800142 0.44151808-4.17434738-2.28786403-4.77641728-5.65945117-6.10096925-0.16055182-17.58042453 9.79366115-32.47160662 12.56317952l-36.04388409 6.70303915c-7.42552235 1.36469049-20.47035733 0.68234581-21.55408156-7.98745373-1.08372537-8.70993693 20.34994403-16.33614848 35.08057315-23.92222151 5.98055595-3.09062315 12.56318066-9.95421298 18.1824933-17.58042453 1.04358685 0.32110365 2.1674496 0.52179399 3.29131236 0.52179285h42.42581959c1.68579413 0 3.25117497-0.40137955 4.61586545-1.12386276zM980.14904775 639.77918237H809.28177038c-12.92442169 0-23.48070457 10.55628288-23.48070457 23.48070456s10.55628288 23.48070457 23.48070457 23.48070344h170.86727737c12.92442169 0 23.48070457-10.55628288 23.48070457-23.48070344s-10.59642027-23.48070457-23.48070457-23.48070456z" p-id="12194" fill="#8396A5"></path><path d="M1003.62975232 663.25988693v-192.58191303c0-12.92442169-10.55628288-23.48070457-23.48070457-23.48070343s-23.48070457 10.55628288-23.48070343 23.48070343v192.58191303c0 12.92442169 10.55628288 23.48070457 23.48070343 23.48070344 12.8842843-0.04013853 23.48070457-10.59642027 23.48070457-23.48070344zM886.54733539 660.69105778h16.37628587v133.13759915h-16.37628587z" p-id="12195" fill="#8396A5"></path><path d="M967.3450405 821.60412217c-6.18124515-11.19849017-14.89118208-20.79146098-25.32705053-28.05643036-13.44621568-9.35214421-29.74222563-14.81090617-47.32265016-14.81090618-17.58042453 0-33.87643449 5.45876195-47.32265018 14.81090618-10.43586845 7.26497053-19.14580537 16.85794133-25.32704938 28.05643036h17.78111374c4.45531363-6.06083186 9.91407559-11.39917938 16.13545814-15.69394006 10.95766243-7.62621155 24.32360107-12.12166258 38.73312768-12.12166257s27.77546525 4.45531363 38.73312768 12.12166257c6.22138368 4.29476181 11.68014563 9.63310933 16.13545813 15.69394006h17.78111488z" p-id="12196" fill="#8396A5"></path><path d="M875.87063922 324.77650489l-37.85009266 10.59642026 9.95421298 66.95011101 43.71023417-11.88083598z" p-id="12197" fill="#8396A5"></path><path d="M895.29740971 368.00508359l-5.45876196-20.14925369-47.72402972 55.02913764 0.44151694 7.62621155z" p-id="12198" fill="#8396A5"></path><path d="M816.82770603 361.42245888c-39.65630009-12.32235293-35.92347079-155.01278549 47.36278755-129.52518429 49.04858169 15.01159538 43.02788835 73.09121763 16.21573405 106.76696292-15.81435449 19.82815005-44.75382101 28.57822435-63.5785216 22.75822137z" p-id="12199" fill="#8396A5"></path><path d="M866.79946126 271.23247218c-5.45876195-0.6020699-10.79711061 6.86359097-11.88083598 16.69738951-1.08372537 9.83379968 2.48855325 18.26277035 7.94731634 18.9049765 5.49890048 0.6020699 10.79711061-6.86359097 11.88083484-16.69738952 1.08372537-9.83379968-2.44841586-18.26277035-7.9473152-18.90497649zM429.81753515 530.52366621H627.45682944v298.10459875h-197.63929429z" p-id="12200" fill="#8396A5"></path><path d="M542.60519139 479.54846265l6.82345245-141.68698425c0-0.04013853 0.04013853-0.08027591 0.04013739-0.08027591 21.5540827-5.13765831 39.736576-13.40607715 41.18154354 4.37503772 1.80620857 22.07587555 13.32580125 89.74846976 19.34649457 137.35208505M484.04391367 480.55191211l13.16524942-140.92436366c0-0.04013853-0.04013853-0.08027591-0.04013738-0.08027592-27.21353387-6.46221141-48.84789248-21.59422009-53.58417124-0.24082773-4.97710649 22.31670329-8.18814293 94.04323043-13.92787114 139.72022499" p-id="12201" fill="#8396A5"></path><path d="M463.57355634 478.06335886c7.42552235-21.39353088-9.71338525-122.98269696-19.10566685-141.40601913 5.33834866-18.90497763 54.94886173-23.07932501 68.19438706-33.8362971 6.26152107 5.49890048 10.7168347 6.74317653 17.82125227 6.74317654s11.80055893-1.4449664 18.06208-6.94386575c9.79366115 7.9473152 61.00969245 14.12856035 69.75976675 33.03353799-9.95421298 21.11256462-28.25712071 123.54462834-20.3499429 142.81084701-37.93036857 1.88648448-96.73247403 1.04358685-134.38187633-0.40137956z" p-id="12202" fill="#8396A5"></path><path d="M497.04861127 311.93235911l-1.60551822 42.06457742 35.32140089 89.42736612 34.79960803-89.42736612-2.1674496-43.2285787-14.81090616-8.10786702-35.88333227 0.16055182z" p-id="12203" fill="#8396A5"></path><path d="M512.70241394 288.1305509h35.2812635v36.44526478h-35.2812635z" p-id="12204" fill="#8396A5"></path><path d="M536.38380771 347.09320818l2.44841586-5.1777957-8.30855736-20.06897778-8.18814294 19.78801152 2.60896768 5.49890048c3.81310635-0.04013853 7.62621155-0.04013853 11.43931676-0.04013852z" p-id="12205" fill="#8396A5"></path><path d="M512.66227655 302.82104263l17.86138966 19.02539207-12.72373135 33.87643449-15.69394119-45.91782229z" p-id="12206" fill="#8396A5"></path><path d="M502.22640811 308.88187449l28.2972581 135.02408362-46.56002845-74.05452856 6.10096925-12.92442169-13.28566272-10.59642027 18.06208-33.35464164zM548.58574621 302.66049081l-18.06208 19.18594389 12.68359395 33.87643449 15.93476893-46.07837412z" p-id="12207" fill="#8396A5"></path><path d="M524.94449095 359.69652622h11.43931676l5.90028004 57.07617394-11.76042154 27.13325795-11.35904086-27.13325795zM512.70241394 302.82104263l17.82125227 19.02539207-12.96455908 25.48760121-15.41297494-37.52898901z" p-id="12208" fill="#8396A5"></path><path d="M502.22640811 308.88187449l28.2972581 135.02408362-42.0244389-79.9548086 6.94386574-9.95421298-13.44621454-10.43586844 12.84414578-30.58512214zM559.50327125 308.60090823l-28.97960504 135.30504988 46.56002958-74.05452856-6.14110777-12.92442169 13.28566385-10.59642027-14.24897478-32.87298617z" p-id="12209" fill="#8396A5"></path><path d="M559.50327125 308.60090823l-28.97960504 135.30504988 42.02444003-79.9548086-6.98400427-9.95421298 13.44621568-10.43586844-9.03104056-30.10346667zM548.58574621 302.62035342l-18.06208 19.22608128 12.96456021 25.48760121 15.65380267-37.68954084zM524.94449095 346.17003577h11.39917938c2.56882915 5.29821013 2.36813995 9.87393707 0 14.40952548h-11.39917938c-2.32800142-4.53558955-2.52869177-9.15145387 0-14.40952548z" p-id="12210" fill="#8396A5"></path><path d="M491.71026375 312.97594595l4.37503659 40.3787833 35.12071168 88.94571064 34.63905621-88.94571064 4.37503659-40.3787833-16.7375269-10.7168347h-45.03478727z" p-id="12211" fill="#8396A5"></path><path d="M508.44779065 287.80944725h44.63340772v36.24457444h-44.63340772z" p-id="12212" fill="#8396A5"></path><path d="M530.96518429 309.16283961c17.58042453 0 33.87643449-20.06897778 42.42581958-44.63340658 0.48165547 0.52179399 1.08372537 0.84289763 1.68579414 0.96331094 3.4920027 0.56193138 7.50579826-5.98055595 8.95076352-14.65035322 1.4449664-8.6697984-0.24082773-16.17559666-3.7328293-16.73752803-0.24082773-0.04013853-0.48165547-0.04013853-0.76262172 0 1.72593266-30.46470883-10.95766243-58.60141511-48.60706475-58.60141511-37.72967822 0-50.37313479 28.1768448-48.60706361 58.6415525-0.40137955-0.08027591-0.76262173-0.12041443-1.12386276-0.04013739-3.4920027 0.56193138-5.17779683 8.06772963-3.73283043 16.73752803 1.4449664 8.6697984 5.45876195 15.21228573 8.95076466 14.65035322 0.76262173-0.12041443 1.40482901-0.56193138 1.96675925-1.24427606 8.58952249 24.68484323 24.92567097 44.91437283 42.58637142 44.9143717zM508.44779065 308.9621504l22.51739364 12.36249031-12.64345658 33.71588267-20.34994289-45.83754525zM553.16147427 309.84518542l-22.19628998 11.47945529 12.64345542 33.71588267 20.34994404-45.83754525z" p-id="12213" fill="#8396A5"></path><path d="M497.97178482 309.20297813l32.99339947 133.57911723-41.8237497-79.55342905 6.94386575-9.87393706-13.36593863-10.39572992 8.99090204-31.42801978z" p-id="12214" fill="#8396A5"></path><path d="M724.91178667 213.39367765c2.93007133 0.28096626 4.77641728 2.72938098 4.17434738 5.45876196l-8.75007432 40.3386459c-0.6020699 2.72938098-3.612416 4.73627875-6.54248618 4.4553125-2.97020871-0.28096626-4.77641728-2.72938098-4.17434738-5.45876196l8.75007431-40.3386459c0.6020699-2.72938098 3.57227861-4.73627875 6.54248619-4.4553125z" p-id="12215" fill="#8396A5"></path><path d="M700.5881856 305.14904405l22.83849728 4.49545102 9.99435037-19.5070464c5.33834866-10.39573106 0.96331093-37.32829867-0.60206877-49.24927089l-17.17904498 2.08717369-19.74787527 34.19753813 4.69614137 27.97615445z" p-id="12216" fill="#8396A5"></path><path d="M699.50446023 282.75206485l3.69269191 1.4449664 1.12386276-4.09407146 8.95076465-32.87298504c1.00344946-3.69269191 0.04013853-6.26152107-1.80620742-8.10786816-1.56538083-1.56538083-6.06083186-3.81310635-6.50234994-2.04703516l-10.07462628 37.32829867c-0.92317355 3.25117497 1.16400128 7.02414279 4.61586432 8.34869475z" p-id="12217" fill="#8396A5"></path><path d="M706.00680903 236.23217379c-0.7224832-0.28096626-0.92317355 0.20069035-1.00344832 0.48165547l-1.96676039 7.50579826c3.33145088 0.80275911 4.81655467-2.84979541 4.65600398-6.26152107-0.04013853-0.52179399-0.76262173-1.40482901-1.68579527-1.72593266zM733.74213689 269.3459877c2.28786403 1.12386275 3.05048462 3.69269191 1.68579413 5.6594523l-4.61586432 6.74317653c-1.36469049 2.00689778-4.3348992 2.68924359-6.62276323 1.5653797-2.28786403-1.12386275-3.05048462-3.69269191-1.68579414-5.65945116l4.61586546-6.74317654c1.36469049-2.00689778 4.3348992-2.68924359 6.6227621-1.56538083zM732.41758493 253.77246094c2.64910507 1.3245531 3.53214009 4.29476181 1.96675925 6.58262471L729.80861725 267.01798627c-1.56538083 2.28786403-5.0573824 3.13076053-7.70648747 1.80620858s-3.53214009-4.29476181-1.96675925-6.58262472l4.57572693-6.70303914c1.56538083-2.28786403 5.01724501-3.09062315 7.70648747-1.76607005z" p-id="12218" fill="#8396A5"></path><path d="M727.56089173 260.71632782c2.12731221 1.04358685 2.80965689 3.41172679 1.56538084 5.25807161l-0.48165547 0.68234582c-1.24427719 1.84634595-4.01379555 2.48855325-6.14110777 1.4449664-2.12731221-1.04358685-2.80965689-3.41172679-1.5653797-5.25807275l0.48165547-0.68234468c1.24427719-1.84634595 4.01379555-2.52869177 6.14110663-1.4449664zM729.28682439 275.64764729c1.92662187 0.96331093 2.56882915 3.13076053 1.40482788 4.81655466l-0.44151694 0.6422073c-1.16400128 1.68579413-3.69269191 2.28786403-5.61931378 1.32455196-1.92662187-0.96331093-2.56882915-3.13076053-1.40482902-4.81655467l0.44151808-0.64220729c1.12386275-1.72593266 3.65255453-2.28786403 5.61931378-1.32455196zM730.2099968 237.51658837c2.64910507 1.3245531 3.53214009 4.29476181 1.96676039 6.58262585l-4.57572693 6.66290063c-1.56538083 2.28786403-5.0573824 3.13076053-7.70648747 1.80620742s-3.53214009-4.25462329-1.96676039-6.5826247l4.57572693-6.70303915c1.56538083-2.28786403 5.0573824-3.09062315 7.70648747-1.76607005z" p-id="12219" fill="#8396A5"></path><path d="M725.35330475 244.46045525c2.12731221 1.04358685 2.80965689 3.41172679 1.5653797 5.25807275l-0.48165547 0.68234467c-1.24427719 1.84634595-4.01379555 2.48855325-6.14110663 1.4449664-2.12731221-1.04358685-2.80965689-3.41172679-1.56538084-5.21793422l0.48165547-0.68234467c1.28441458-1.88648448 4.05393408-2.52869177 6.14110777-1.48510493zM700.5881856 305.14904405l16.25587257 3.21103645c2.97020871-12.00124928 4.17434738-34.39822848-10.19504071-38.37188551-2.00689778-0.88303502-3.89338226-1.4449664-5.65945231-1.72593152l-5.1376583 8.8704876 4.73627875 28.01629298z" p-id="12220" fill="#8396A5"></path><path d="M591.81432491 366.51997867l-9.47255752-51.45685902c0-0.04013853 82.72432697 28.65850027 93.03978212 31.90967523l15.61366414-49.40982386c0-0.04013853 0.04013853-0.08027591 0.08027592-0.04013852l41.62306048 13.08497351c0.04013853 0 0.04013853 0.04013853 0.04013852 0.08027591l-23.8419456 75.53963349c-4.49545102 14.24897479-16.41642439 12.08152519-22.1561526 10.23517924-31.58857159-10.03448889-63.25741795-19.90842595-94.88612694-29.86264007-0.04013853 0-0.04013853-0.04013853-0.04013852-0.08027591z" p-id="12221" fill="#8396A5"></path></svg>