<?xml version="1.0" standalone="no"?><!DOCTYPE svg PUBLIC "-//W3C//DTD SVG 1.1//EN" "http://www.w3.org/Graphics/SVG/1.1/DTD/svg11.dtd"><svg t="1619786811704" class="icon" viewBox="0 0 1024 1024" version="1.1" xmlns="http://www.w3.org/2000/svg" p-id="27057" xmlns:xlink="http://www.w3.org/1999/xlink" width="300" height="300"><defs><style type="text/css"></style></defs><path d="M618.667 53.333A117.333 117.333 0 0 1 736 170.667v138.666h96a117.333 117.333 0 0 1 117.333 117.334V896A117.333 117.333 0 0 1 832 1013.333H192A117.333 117.333 0 0 1 74.667 896V170.667A117.333 117.333 0 0 1 192 53.333h426.667z m0 64H192c-29.44 0-53.333 23.894-53.333 53.334V896c0 29.44 23.893 53.333 53.333 53.333h480V170.667c0-29.44-23.893-53.334-53.333-53.334z m213.333 256h-96v576h96c29.44 0 53.333-23.893 53.333-53.333V426.667c0-29.44-23.893-53.334-53.333-53.334z m-576 288h256a32 32 0 0 1 4.352 63.702l-4.352 0.298H256a32 32 0 0 1-4.352-63.701l4.352-0.299h256z m0-192h256a32 32 0 0 1 4.352 63.702l-4.352 0.298H256a32 32 0 0 1-4.352-63.701l4.352-0.299h256z m0-192h256a32 32 0 0 1 4.352 63.702l-4.352 0.298H256a32 32 0 0 1-4.352-63.701l4.352-0.299h256z" fill="#CCCCD8" p-id="27058"></path></svg>