<?xml version="1.0" standalone="no"?><!DOCTYPE svg PUBLIC "-//W3C//DTD SVG 1.1//EN" "http://www.w3.org/Graphics/SVG/1.1/DTD/svg11.dtd"><svg t="1617969728324" class="icon" viewBox="0 0 1109 1024" version="1.1" xmlns="http://www.w3.org/2000/svg" p-id="8338" xmlns:xlink="http://www.w3.org/1999/xlink" width="324.90234375" height="300"><defs><style type="text/css"></style></defs><path d="M1109.333333 682.666667v-170.666667h-85.333333V170.666667a85.333333 85.333333 0 0 0-85.333333-85.333334H170.666667a85.333333 85.333333 0 0 0-85.333334 85.333334v682.666666a85.333333 85.333333 0 0 0 85.333334 85.333334h85.333333v85.333333h682.666667H170.666667a170.666667 170.666667 0 0 1-170.666667-170.666667V170.666667a170.666667 170.666667 0 0 1 170.666667-170.666667h768a170.666667 170.666667 0 0 1 170.666666 170.666667v512z" p-id="8339" fill="#8396A5"></path><path d="M170.666667 298.666667m42.666666 0l213.333334 0q42.666667 0 42.666666 42.666666l0 0q0 42.666667-42.666666 42.666667l-213.333334 0q-42.666667 0-42.666666-42.666667l0 0q0-42.666667 42.666666-42.666666Z" p-id="8340" fill="#8396A5"></path><path d="M170.666667 469.333333m42.666666 0l128 0q42.666667 0 42.666667 42.666667l0 0q0 42.666667-42.666667 42.666667l-128 0q-42.666667 0-42.666666-42.666667l0 0q0-42.666667 42.666666-42.666667Z" p-id="8341" fill="#8396A5"></path><path d="M746.666667 640a192 192 0 1 1 0-384 192 192 0 0 1 0 384z m0-85.333333a106.666667 106.666667 0 1 0 0-213.333334 106.666667 106.666667 0 0 0 0 213.333334zM512 682.666667h469.333333a85.333333 85.333333 0 0 1 85.333334 85.333333v170.666667a85.333333 85.333333 0 0 1-85.333334 85.333333H512a85.333333 85.333333 0 0 1-85.333333-85.333333v-170.666667a85.333333 85.333333 0 0 1 85.333333-85.333333z m0 85.333333v170.666667h469.333333v-170.666667H512z" p-id="8342" fill="#8396A5"></path><path d="M256 981.333333m-42.666667 0a42.666667 42.666667 0 1 0 85.333334 0 42.666667 42.666667 0 1 0-85.333334 0Z" p-id="8343" fill="#8396A5"></path><path d="M1066.666667 512m-42.666667 0a42.666667 42.666667 0 1 0 85.333333 0 42.666667 42.666667 0 1 0-85.333333 0Z" p-id="8344" fill="#8396A5"></path></svg>