<?xml version="1.0" standalone="no"?><!DOCTYPE svg PUBLIC "-//W3C//DTD SVG 1.1//EN" "http://www.w3.org/Graphics/SVG/1.1/DTD/svg11.dtd"><svg t="1617969772653" class="icon" viewBox="0 0 1024 1024" version="1.1" xmlns="http://www.w3.org/2000/svg" p-id="8550" xmlns:xlink="http://www.w3.org/1999/xlink" width="300" height="300"><defs><style type="text/css"></style></defs><path d="M928 192c17.7152 0 32 14.336 32 32v576c0 17.7152-14.336 32-32 32H96a31.9488 31.9488 0 0 1-32-32V224c0-17.7152 14.336-32 32-32zM896 256h-768v512h768V256z m-487.2704 372.736l25.0368 16.64a32 32 0 1 1-35.5328 53.248l-24.9856-16.64a95.744 95.744 0 0 0-106.496 0l-24.9856 16.64a32 32 0 1 1-35.5328-53.248l25.0368-16.6912a159.5392 159.5392 0 0 1 177.4592 0z m327.2704-20.736a31.9488 31.9488 0 1 1 0 64H576a31.9488 31.9488 0 1 1 0-64h160zM320 320a128 128 0 1 1 0 256 128 128 0 0 1 0-256z m416 160a31.9488 31.9488 0 1 1 0 64H576a31.9488 31.9488 0 1 1 0-64h160zM320 384C284.672 384 256 412.672 256 448S284.672 512 320 512 384 483.328 384 448 355.328 384 320 384z m480-32a31.9488 31.9488 0 1 1 0 64H576a31.9488 31.9488 0 1 1 0-64h224z" p-id="8551" fill="#8396A5"></path></svg>