<?xml version="1.0" standalone="no"?><!DOCTYPE svg PUBLIC "-//W3C//DTD SVG 1.1//EN" "http://www.w3.org/Graphics/SVG/1.1/DTD/svg11.dtd"><svg t="1617532842197" class="icon" viewBox="0 0 1024 1024" version="1.1" xmlns="http://www.w3.org/2000/svg" p-id="2781" xmlns:xlink="http://www.w3.org/1999/xlink" width="200" height="200"><defs><style type="text/css"></style></defs><path d="M954.7776 283.8528a8.8064 8.8064 0 0 0 14.7456-6.5536V124.3136A42.8032 42.8032 0 0 0 926.72 81.92h-171.6224a8.8064 8.8064 0 0 0-5.9392 15.36z" fill="#8396A5" p-id="2782"></path><path d="M1014.9888 500.736L527.36 13.1072a21.504 21.504 0 0 0-30.5152 0L9.0112 500.736a21.504 21.504 0 0 0 15.36 36.864h50.9952v441.5488a38.0928 38.0928 0 0 0 38.0928 38.0928h244.5312a38.0928 38.0928 0 0 0 38.0928-38.0928v-166.2976a38.0928 38.0928 0 0 1 38.0928-38.0928h194.7648a38.0928 38.0928 0 0 1 38.0928 38.0928v166.2976a38.0928 38.0928 0 0 0 38.0928 38.0928h204.8a38.0928 38.0928 0 0 0 38.0928-38.0928V537.6h50.9952a21.504 21.504 0 0 0 15.9744-36.864z" fill="#8396A5" p-id="2783"></path></svg>