<?xml version="1.0" standalone="no"?><!DOCTYPE svg PUBLIC "-//W3C//DTD SVG 1.1//EN" "http://www.w3.org/Graphics/SVG/1.1/DTD/svg11.dtd"><svg t="1617969317356" class="icon" viewBox="0 0 1024 1024" version="1.1" xmlns="http://www.w3.org/2000/svg" p-id="6185" xmlns:xlink="http://www.w3.org/1999/xlink" width="300" height="300"><defs><style type="text/css"></style></defs><path d="M3.526255 74.084792A3.493429 3.493429 0 0 0 0.032826 77.638453v412.766734c0 1.927409 1.505788 3.553661 3.493429 3.55366h409.755157a3.493429 3.493429 0 0 0 3.553661-3.55366V77.578222a3.493429 3.493429 0 0 0-3.553661-3.49343H3.526255zM753.830531 1.686483a5.119681 5.119681 0 0 0-7.227785-0.180695l-284.292862 270.620303a5.119681 5.119681 0 0 0-0.301157 7.227785l268.753124 286.461197a5.119681 5.119681 0 0 0 7.227785 0.240926l284.353093-270.620303a5.240144 5.240144 0 0 0 0.180695-7.227784L753.830531 1.626252zM3.526255 604.122331A3.493429 3.493429 0 0 0 0.032826 607.736224v412.766733c0 1.987641 1.505788 3.493429 3.493429 3.493429h409.755157a3.493429 3.493429 0 0 0 3.553661-3.493429v-412.766733a3.493429 3.493429 0 0 0-3.553661-3.553661H3.526255z m533.892358 0a3.613892 3.613892 0 0 0-3.613893 3.553661v412.766733a3.613892 3.613892 0 0 0 3.613893 3.49343h409.755156a3.493429 3.493429 0 0 0 3.493429-3.49343v-412.766733a3.613892 3.613892 0 0 0-3.493429-3.553661H537.418613z" fill="#8396A5" p-id="6186"></path></svg>