<?xml version="1.0" standalone="no"?><!DOCTYPE svg PUBLIC "-//W3C//DTD SVG 1.1//EN" "http://www.w3.org/Graphics/SVG/1.1/DTD/svg11.dtd"><svg t="1617969363505" class="icon" viewBox="0 0 1024 1024" version="1.1" xmlns="http://www.w3.org/2000/svg" p-id="7025" xmlns:xlink="http://www.w3.org/1999/xlink" width="300" height="300"><defs><style type="text/css"></style></defs><path d="M154.65931 81.390345v47.633655c0 51.305931 44.879448 95.26731 101.022897 95.26731 56.143448 0 101.058207-43.961379 101.058207-95.26731v-47.668966h52.400552v47.668966c0 51.305931 44.914759 95.26731 101.058206 95.26731s101.058207-43.961379 101.058207-95.26731v-47.668966h52.400552v47.668966c0 51.305931 44.914759 95.26731 101.058207 95.26731s101.058207-43.961379 101.058207-95.26731v-47.668966h48.657655c26.200276 0 52.400552 21.998345 52.400552 47.668966v831.699862c-3.742897 25.670621-26.200276 47.668966-52.400552 47.668966H106.001655c-29.943172 0-52.400552-21.998345-52.400552-47.668966V129.024c0-25.670621 22.457379-47.668966 52.400552-47.668966h48.622345z m540.036414 322.524689l-234.566621 283.718621-148.797793-145.655172a38.841379 38.841379 0 0 0-53.954207 0 36.89931 36.89931 0 0 0 0 52.824276l177.716966 173.938758c4.166621 4.096 9.074759 7.062069 14.336 8.827586a38.841379 38.841379 0 0 0 43.784828-11.193379l260.802206-315.462621c12.25269-14.830345 10.946207-36.263724-2.365793-49.611034l-3.283862-2.930759a38.841379 38.841379 0 0 0-53.671724 5.543724z" p-id="7026" fill="#8396A5"></path><path d="M255.682207 158.331586c-22.457379 0-41.171862-18.326069-41.171862-40.324414V41.065931c0-21.963034 18.714483-40.289103 41.171862-40.289103 22.457379 0 41.171862 18.326069 41.171862 40.289103v76.976552c0 21.963034-18.714483 40.253793-41.171862 40.253793m254.516965 0c-22.457379 0-41.171862-18.290759-41.171862-40.253793v-76.976552c0-21.963034 18.714483-40.289103 41.171862-40.289103 22.457379 0 41.171862 18.326069 41.171862 40.289103v76.976552c0 21.963034-18.714483 40.253793-41.171862 40.253793m254.516966 0c-22.457379 0-41.171862-18.290759-41.171862-40.253793v-76.976552c0-21.963034 18.714483-40.289103 41.171862-40.289103 22.457379 0 41.171862 18.326069 41.171862 40.289103v76.976552c0 21.963034-18.714483 40.253793-41.171862 40.253793" p-id="7027" fill="#8396A5"></path></svg>