<?xml version="1.0" standalone="no"?><!DOCTYPE svg PUBLIC "-//W3C//DTD SVG 1.1//EN" "http://www.w3.org/Graphics/SVG/1.1/DTD/svg11.dtd"><svg t="1619786739133" class="icon" viewBox="0 0 1024 1024" version="1.1" xmlns="http://www.w3.org/2000/svg" p-id="24738" xmlns:xlink="http://www.w3.org/1999/xlink" width="300" height="300"><defs><style type="text/css"></style></defs><path d="M512 120.470588C295.152941 120.470588 120.470588 295.152941 120.470588 512S295.152941 903.529412 512 903.529412 903.529412 728.847059 903.529412 512 728.847059 120.470588 512 120.470588z m156.611765 542.117647c-6.023529 6.023529-18.070588 12.047059-24.094118 12.047059-6.023529 0-18.070588 0-24.094118-6.023529L487.905882 560.188235c-6.023529-6.023529-12.047059-18.070588-12.047058-24.094117V373.458824c0-18.070588 18.070588-36.141176 36.141176-36.141177s36.141176 18.070588 36.141176 36.141177v144.564705l120.470589 102.4c12.047059 6.023529 12.047059 24.094118 0 42.164706z" fill="#CCCCD8" p-id="24739"></path></svg>