<?xml version="1.0" standalone="no"?><!DOCTYPE svg PUBLIC "-//W3C//DTD SVG 1.1//EN" "http://www.w3.org/Graphics/SVG/1.1/DTD/svg11.dtd"><svg t="1617970121797" class="icon" viewBox="0 0 1114 1024" version="1.1" xmlns="http://www.w3.org/2000/svg" p-id="13035" xmlns:xlink="http://www.w3.org/1999/xlink" width="326.3671875" height="300"><defs><style type="text/css"></style></defs><path d="M540.611765 543.623529c-135.529412 0-245.458824-109.929412-245.458824-245.458823S405.082353 52.705882 540.611765 52.705882s245.458824 109.929412 245.458823 245.458824-109.929412 245.458824-245.458823 245.458823z m0-445.741176c-109.929412 0-200.282353 90.352941-200.282353 200.282353s90.352941 200.282353 200.282353 200.282353 200.282353-90.352941 200.282353-200.282353-90.352941-200.282353-200.282353-200.282353z" p-id="13036" fill="#8396A5"></path><path d="M999.905882 971.294118H99.388235V948.705882c0-248.470588 201.788235-450.258824 450.258824-450.258823v45.17647c-215.341176 0-391.529412 168.658824-403.576471 382.494118h807.152941c-7.529412-129.505882-75.294118-246.964706-185.223529-317.741176l24.094118-37.647059c129.505882 82.823529 206.305882 224.376471 206.305882 377.97647v22.588236z" p-id="13037" fill="#8396A5"></path></svg>