<?xml version="1.0" standalone="no"?><!DOCTYPE svg PUBLIC "-//W3C//DTD SVG 1.1//EN" "http://www.w3.org/Graphics/SVG/1.1/DTD/svg11.dtd"><svg t="1617969794080" class="icon" viewBox="0 0 1024 1024" version="1.1" xmlns="http://www.w3.org/2000/svg" p-id="8769" xmlns:xlink="http://www.w3.org/1999/xlink" width="300" height="300"><defs><style type="text/css"></style></defs><path d="M364.916619 542.351262c-81.808214 0-148.365072-66.530252-148.365072-148.306744 0-81.84096 66.556858-148.422378 148.365072-148.422378s148.364049 66.582441 148.364049 148.422378C513.281691 475.822033 446.725856 542.351262 364.916619 542.351262zM364.916619 307.020512c-47.953152 0-86.966701 39.039131-86.966701 87.024006 0 47.922453 39.013549 86.909395 86.966701 86.909395s86.965677-38.986943 86.965677-86.909395C451.883319 346.05862 412.870794 307.020512 364.916619 307.020512zM511.121492 781.37103 485.173516 623.207801 414.103878 599.687108 433.395246 541.398564 539.744389 576.59518 571.710428 771.430634ZM218.712769 781.370007 158.124855 771.431657 190.088848 576.59518 296.437991 541.398564 315.729359 599.687108 244.660744 623.207801ZM629.665375 304.45406l117.664863 0 0 61.398372-117.664863 0 0-61.398372ZM629.665375 422.12097l235.332796 0 0 61.398372-235.332796 0 0-61.398372ZM629.665375 539.786857l235.332796 0 0 61.398372-235.332796 0 0-61.398372ZM629.665375 657.452743l235.332796 0 0 61.398372-235.332796 0 0-61.398372ZM364.916619 833.951573l294.163693 0 0 61.398372-294.163693 0 0-61.398372ZM983.945237 895.349945 717.914278 895.349945 717.914278 833.951573 922.546865 833.951573 922.546865 189.354626 101.451088 189.354626 101.451088 833.951573 306.083675 833.951573 306.083675 895.349945 40.052716 895.349945 40.052716 127.956254 983.945237 127.956254Z" p-id="8770" fill="#8396A5"></path></svg>