<?xml version="1.0" standalone="no"?><!DOCTYPE svg PUBLIC "-//W3C//DTD SVG 1.1//EN" "http://www.w3.org/Graphics/SVG/1.1/DTD/svg11.dtd"><svg t="1619786792255" class="icon" viewBox="0 0 1026 1024" version="1.1" xmlns="http://www.w3.org/2000/svg" p-id="26447" xmlns:xlink="http://www.w3.org/1999/xlink" width="300.5859375" height="300"><defs><style type="text/css"></style></defs><path d="M373.083 512.935c0 18.335 3.647 36.669 10.664 53.609a140.456 140.456 0 0 0 30.37 45.454 140.505 140.505 0 0 0 45.451 30.367 140.464 140.464 0 0 0 53.613 10.661c18.336 0 36.67-3.64 53.61-10.661a140.541 140.541 0 0 0 45.454-30.367 140.539 140.539 0 0 0 30.366-45.454 140.48 140.48 0 0 0 10.668-53.61c0-18.342-3.648-36.674-10.668-53.613a140.492 140.492 0 0 0-30.366-45.452 140.504 140.504 0 0 0-45.454-30.37 140.5 140.5 0 0 0-53.61-10.662 140.513 140.513 0 0 0-53.613 10.661 140.433 140.433 0 0 0-45.45 30.371 140.39 140.39 0 0 0-30.371 45.452 140.532 140.532 0 0 0-10.664 53.614m0 0z" fill="#CCCCD8" p-id="26448"></path><path d="M1017.31 479.083s-0.583-13.343-124.09-128.784c-176.543-152.67-333.905-174.587-450.949-160.104-117.044 14.485-205.12 77.506-212.163 81.424C174.52 302.544 89.97 385.134 61.784 414.496c-28.18 29.356-44.234 41.886-53.624 61.067-22.315 45.798 8.22 91.596 8.22 91.596l77.893 78.292S269.647 839.44 499.816 839.44s339.386-98.87 385.576-134.879c46.19-36.014 102.944-101.389 131.917-140.138 20.359-43.454 0-85.34 0-85.34m-504.13 269.07c-129.91 0-235.224-105.312-235.224-235.218 0-129.912 105.313-235.224 235.224-235.224 129.907 0 235.218 105.312 235.218 235.224 0.001 129.906-105.31 235.217-235.218 235.217m0 0z" fill="#CCCCD8" p-id="26449"></path></svg>