<?xml version="1.0" standalone="no"?><!DOCTYPE svg PUBLIC "-//W3C//DTD SVG 1.1//EN" "http://www.w3.org/Graphics/SVG/1.1/DTD/svg11.dtd"><svg t="1617969874518" class="icon" viewBox="0 0 1037 1024" version="1.1" xmlns="http://www.w3.org/2000/svg" p-id="10430" xmlns:xlink="http://www.w3.org/1999/xlink" width="303.80859375" height="300"><defs><style type="text/css"></style></defs><path d="M434.666667 695.733333h165.066666c13.733333 0 20.666667-10.266667 20.666667-20.666666v-89.466667c0-13.733333-10.266667-20.666667-20.666667-20.666667H434.666667c-13.733333 0-20.666667 10.266667-20.666667 20.666667v89.466667c0 13.866667 10.266667 20.666667 20.666667 20.666666z m24-86h123.866666v48.133334H458.666667v-48.133334z" p-id="10431" fill="#8396A5"></path><path d="M286.666667 788.666667c3.466667 0 6.933333 3.466667 13.733333 3.466666h3.466667c6.933333 0 10.266667-3.466667 10.266666-10.266666 34.4-65.333333 51.6-147.866667 51.6-251.066667V351.866667H678.666667v378.266666c0 6.933333 0 6.933333-6.933334 6.933334h-68.8c-6.933333 0-10.266667 3.466667-13.733333 6.933333-3.466667 3.466667-3.466667 10.266667-3.466667 13.733333l3.466667 17.2c3.466667 6.933333 10.266667 13.733333 17.2 13.733334H678.666667c27.466667 0 44.666667-13.733333 51.6-34.4V317.466667c0-10.266667-6.933333-17.2-17.2-17.2H331.466667c-10.266667 0-17.2 10.266667-17.2 17.2v216.666666c0 89.466667-17.2 165.066667-44.666667 220.133334-3.466667 6.933333 0 13.733333 3.466667 20.666666l13.6 13.733334z" p-id="10432" fill="#8396A5"></path><path d="M407.066667 489.333333c-10.266667 0-17.2 6.933333-17.2 17.2v13.733334c0 10.266667 10.266667 17.2 17.2 17.2H630.666667c10.266667 0 17.2-10.266667 17.2-17.2v-13.733334c0-10.266667-6.933333-17.2-17.2-17.2h-86v-24h68.8c10.266667 0 17.2-6.933333 17.2-17.2v-13.733333c0-10.266667-6.933333-17.2-17.2-17.2h-68.8v-27.466667c0-10.266667-10.266667-17.2-17.2-17.2h-13.733334c-10.266667 0-17.2 6.933333-17.2 17.2v27.466667h-72.266666c-10.266667 0-17.2 6.933333-17.2 17.2v13.733333c0 10.266667 10.266667 17.2 17.2 17.2h72.266666v24h-89.466666z m309.6-323.2c20.666667 0 34.4-13.733333 34.4-27.466666V28.533333C751.066667 11.333333 737.333333 1.066667 716.666667 1.066667s-34.4 13.733333-34.4 27.466666v110c0 17.2 17.2 27.6 34.4 27.6z m-412.8 0c20.666667 0 34.4-13.733333 34.4-27.466666V28.533333C338.266667 11.333333 321.066667 1.066667 303.866667 1.066667s-34.4 13.733333-34.4 27.466666v110c0 17.2 17.2 27.6 34.4 27.6z m103.2-37.866666h206.4c17.2 0 30.933333-17.2 30.933333-34.4 0-20.666667-13.733333-34.4-30.933333-34.4H407.066667c-17.2 0-30.933333 17.2-30.933334 34.4 3.466667 20.666667 17.2 34.4 30.933334 34.4z" p-id="10433" fill="#8396A5"></path><path d="M843.866667 56h-20.666667c-20.666667 0-34.4 17.2-34.4 34.4s17.2 34.4 34.4 34.4h20.666667c65.333333 0 120.4 51.6 120.4 120.4v581.2c0 65.333333-55.066667 120.4-120.4 120.4H193.866667c-65.333333 0-120.4-55.066667-120.4-120.4V248.666667c0-65.333333 55.066667-120.4 120.4-120.4 20.666667 0 34.4-17.2 34.4-34.4s-17.2-34.4-34.4-34.4C87.2 56 1.2 142 1.2 248.666667v581.2c0 106.666667 86 192.666667 192.666667 192.666666h650c106.666667 0 189.2-86 189.2-192.666666V248.666667c0-106.666667-86-192.666667-189.2-192.666667z" p-id="10434" fill="#8396A5"></path></svg>